<svg width="41" height="32" viewBox="0 0 41 32" fill="none" xmlns="http://www.w3.org/2000/svg">
<g clip-path="url(#clip0_34_127)">
<path d="M18.7245 19.4925V15.6646L10.0927 31.9918H11.6082C15.6183 31.9266 18.8226 28.6345 18.7796 24.6242L18.7245 19.4925Z" fill="#DC0612"/>
<g filter="url(#filter0_d_34_127)">
<path d="M25.8753 26.1651C28.727 26.1651 31.3074 24.9803 33.1762 23.0647C35.0437 21.1505 36.1996 18.5041 36.1996 15.581V16.0609C36.2009 15.9723 36.2023 15.885 36.2023 15.7977C36.2023 15.7255 36.2023 15.6532 36.1996 15.581C36.2009 15.5646 36.1996 15.5482 36.1996 15.5319C36.1996 15.5237 36.1996 15.5155 36.1983 15.506C36.1969 15.0942 36.169 14.6907 36.1158 14.2925C35.5026 9.507 31.6094 5.86263 26.7704 5.86263H20.08V0C20.8075 0 28.5328 0.0640772 29.2285 0.186783C30.9882 0.497639 32.6415 1.18752 34.1206 2.18008C35.5385 3.13173 36.7995 4.36561 37.8383 5.81082C39.7124 8.4081 40.8843 11.698 41.0199 15.2946C41.0292 15.5292 41.0345 15.7664 41.0345 16.005C41.0345 16.1427 41.0332 16.2818 41.0292 16.4181C41.0292 16.4917 41.0252 16.5653 41.0226 16.639C40.8989 20.2629 39.7284 23.5773 37.8423 26.1937C36.7875 27.6621 35.5066 28.9096 34.0621 29.8708C32.5976 30.8402 30.9656 31.5164 29.2285 31.8232C28.5328 31.9459 27.7519 32.01 27.0244 32.01H20.0525L22.642 26.1937" fill="white"/>
</g>
<path fill-rule="evenodd" clip-rule="evenodd" d="M18.7656 26.9277C18.7656 30.6374 16.0447 32.1552 12.7666 32.1553H5.68262V26.2979H10.7979C12.7419 25.7802 12.9111 24.7035 12.9229 23.9404V6.44043H18.7656V26.9277Z" fill="#DC0612"/>
</g>
<path d="M25.0055 5.85742H12.8815V0H21.2164L25.0055 5.85742Z" fill="#DC0612"/>
<defs>
<filter id="filter0_d_34_127" x="16.0525" y="0" width="28.9821" height="40.01" filterUnits="userSpaceOnUse" color-interpolation-filters="sRGB">
<feFlood flood-opacity="0" result="BackgroundImageFix"/>
<feColorMatrix in="SourceAlpha" type="matrix" values="0 0 0 0 0 0 0 0 0 0 0 0 0 0 0 0 0 0 127 0" result="hardAlpha"/>
<feOffset dy="4"/>
<feGaussianBlur stdDeviation="2"/>
<feComposite in2="hardAlpha" operator="out"/>
<feColorMatrix type="matrix" values="0 0 0 0 0 0 0 0 0 0 0 0 0 0 0 0 0 0 0.25 0"/>
<feBlend mode="normal" in2="BackgroundImageFix" result="effect1_dropShadow_34_127"/>
<feBlend mode="normal" in="SourceGraphic" in2="effect1_dropShadow_34_127" result="shape"/>
</filter>
<clipPath id="clip0_34_127">
<rect width="41" height="31.98" fill="white"/>
</clipPath>
</defs>
</svg>
