<svg width="207" height="32" viewBox="0 0 207 32" fill="none" xmlns="http://www.w3.org/2000/svg">
<g clip-path="url(#clip0_34_139)">
<path d="M18.7245 19.4925V15.6646L10.0927 31.9918H11.6082C15.6183 31.9266 18.8226 28.6345 18.7796 24.6242L18.7245 19.4925Z" fill="#DC0612"/>
<g filter="url(#filter0_d_34_139)">
<path d="M25.8753 26.1651C28.727 26.1651 31.3074 24.9803 33.1762 23.0647C35.0437 21.1505 36.1996 18.5041 36.1996 15.581V16.0609C36.2009 15.9723 36.2023 15.885 36.2023 15.7977C36.2023 15.7255 36.2023 15.6532 36.1996 15.581C36.2009 15.5646 36.1996 15.5482 36.1996 15.5319C36.1996 15.5237 36.1996 15.5155 36.1983 15.506C36.1969 15.0942 36.169 14.6907 36.1158 14.2925C35.5026 9.507 31.6094 5.86263 26.7704 5.86263H20.08V0C20.8075 0 28.5328 0.0640772 29.2285 0.186783C30.9882 0.497639 32.6415 1.18752 34.1206 2.18008C35.5385 3.13173 36.7995 4.36561 37.8383 5.81082C39.7124 8.4081 40.8843 11.698 41.0199 15.2946C41.0292 15.5292 41.0345 15.7664 41.0345 16.005C41.0345 16.1427 41.0332 16.2818 41.0292 16.4181C41.0292 16.4917 41.0252 16.5653 41.0226 16.639C40.8989 20.2629 39.7284 23.5773 37.8423 26.1937C36.7875 27.6621 35.5066 28.9096 34.0621 29.8708C32.5976 30.8402 30.9656 31.5164 29.2285 31.8232C28.5328 31.9459 27.7519 32.01 27.0244 32.01H20.0525L22.642 26.1937" fill="white"/>
</g>
<path fill-rule="evenodd" clip-rule="evenodd" d="M18.7656 26.9277C18.7656 30.6374 16.0447 32.1552 12.7666 32.1553H5.68262V26.2979H10.7979C12.7419 25.7802 12.9111 24.7035 12.9229 23.9404V6.44043H18.7656V26.9277Z" fill="#DC0612"/>
</g>
<path d="M25.0055 5.85742H12.8815V0H21.2164L25.0055 5.85742Z" fill="#DC0612"/>
<path d="M57.3965 25.3027C56.7845 25.3027 56.2409 25.1855 55.7656 24.9512C55.2904 24.7168 54.8997 24.4141 54.5938 24.043L54.2324 25.1172H51.6152V18.8184H54.4375C54.4375 19.7689 54.5221 20.4655 54.6914 20.9082C54.8672 21.3444 55.222 21.5625 55.7559 21.5625C56.2116 21.5625 56.5762 21.3509 56.8496 20.9277C57.123 20.498 57.2598 19.9967 57.2598 19.4238V12.9004H55.375V9.44336H63.8125V12.9004H62.2598V20.3613C62.2598 21.3639 62.0612 22.2363 61.6641 22.9785C61.2734 23.7142 60.7135 24.2871 59.9844 24.6973C59.2617 25.1009 58.3991 25.3027 57.3965 25.3027ZM71.5273 21.5625V25H64.6719V21.5625H66.2148L68.8906 12.9004H66.8496V9.46289H76.5273L79.9941 21.5625H81.5273V25H72.7871V21.5625H74.0566L73.6367 19.9023H70.1113L69.6719 21.5625H71.5273ZM73.168 17.5391L72.0352 12.7832L70.6094 17.5391H73.168ZM88.5586 21.5039V25H82.3379V21.5039H83.9199V12.8809H82.377V9.44336H89.5547L94.418 18.6816V12.9004H92.8555V9.46289H99.0762V12.9004H97.5332V25H91.6152L86.9961 16.416V21.5039H88.5586ZM111.889 21.4844V25H103.188V21.4844H104.789V12.9004H103.412L102.992 15.5762H100.248V9.46289H114.867V15.5762H112.133L111.713 12.9004H110.287V21.4844H111.889ZM124.984 21.5625V25H116.869V21.5625H118.432V12.9004H116.869V9.46289H124.984V12.9004H123.432V21.5625H124.984ZM132.66 21.5039V25H126.439V21.5039H128.021V12.8809H126.479V9.44336H133.656L138.52 18.6816V12.9004H136.957V9.46289H143.178V12.9004H141.635V25H135.717L131.098 16.416V21.5039H132.66ZM152.25 21.5625V25H144.447V21.5625H146.01V12.9004H144.447V9.46289L152.25 9.44336V12.9004H151.01V15.459H154.75V12.9004H153.51V9.44336L161.303 9.46289V12.9004H159.75V21.5625H161.303V25H153.51V21.5625H154.75V18.7988H151.01V21.5625H152.25ZM169.203 21.5625V25H162.348V21.5625H163.891L166.566 12.9004H164.525V9.46289H174.203L177.67 21.5625H179.203V25H170.463V21.5625H171.732L171.312 19.9023H167.787L167.348 21.5625H169.203ZM170.844 17.5391L169.711 12.7832L168.285 17.5391H170.844ZM182.483 10.94C182.363 11.4067 182.209 11.9133 182.023 12.46C181.836 13.0067 181.629 13.5533 181.403 14.1C181.189 14.6333 180.976 15.14 180.763 15.62H179.463C179.556 15.2467 179.649 14.8467 179.743 14.42C179.849 13.9933 179.943 13.5667 180.023 13.14C180.116 12.7 180.196 12.2733 180.263 11.86C180.343 11.4467 180.409 11.0667 180.463 10.72H182.343L182.483 10.94ZM190.775 25.2832C190.242 25.2832 189.786 25.2441 189.408 25.166C189.031 25.0879 188.679 24.9609 188.354 24.7852C188.035 24.6094 187.693 24.3815 187.328 24.1016L186.986 25H183.832V20.2441H186.967C187.169 20.791 187.478 21.1784 187.895 21.4062C188.318 21.6276 188.835 21.7383 189.447 21.7383C189.825 21.7383 190.147 21.6634 190.414 21.5137C190.681 21.3574 190.814 21.1523 190.814 20.8984C190.814 20.5794 190.678 20.3418 190.404 20.1855C190.131 20.0228 189.747 19.873 189.252 19.7363C188.62 19.5671 188.048 19.388 187.533 19.1992C187.025 19.0104 186.57 18.8151 186.166 18.6133C185.359 18.2096 184.708 17.6367 184.213 16.8945C183.718 16.1523 183.471 15.166 183.471 13.9355C183.471 12.9915 183.676 12.1582 184.086 11.4355C184.49 10.7194 185.069 10.1628 185.824 9.76562C186.586 9.36198 187.481 9.16016 188.51 9.16016C189.766 9.16016 190.759 9.56055 191.488 10.3613L191.986 9.44336H194.789V14.1016H191.791C191.511 13.5156 191.202 13.1087 190.863 12.8809C190.525 12.653 190.059 12.5391 189.467 12.5391C189.018 12.5391 188.669 12.6204 188.422 12.7832C188.174 12.9395 188.051 13.1576 188.051 13.4375C188.051 13.75 188.23 13.9876 188.588 14.1504C188.939 14.3197 189.441 14.4759 190.092 14.6191C191.231 14.8796 192.214 15.2083 193.041 15.6055C193.848 16.0026 194.493 16.5658 194.975 17.2949C195.463 18.0176 195.707 18.9518 195.707 20.0977C195.707 21.0677 195.505 21.9466 195.102 22.7344C194.691 23.5221 194.109 24.1439 193.354 24.5996C192.605 25.0553 191.745 25.2832 190.775 25.2832Z" fill="white"/>
<defs>
<filter id="filter0_d_34_139" x="16.0525" y="0" width="28.9821" height="40.01" filterUnits="userSpaceOnUse" color-interpolation-filters="sRGB">
<feFlood flood-opacity="0" result="BackgroundImageFix"/>
<feColorMatrix in="SourceAlpha" type="matrix" values="0 0 0 0 0 0 0 0 0 0 0 0 0 0 0 0 0 0 127 0" result="hardAlpha"/>
<feOffset dy="4"/>
<feGaussianBlur stdDeviation="2"/>
<feComposite in2="hardAlpha" operator="out"/>
<feColorMatrix type="matrix" values="0 0 0 0 0 0 0 0 0 0 0 0 0 0 0 0 0 0 0.25 0"/>
<feBlend mode="normal" in2="BackgroundImageFix" result="effect1_dropShadow_34_139"/>
<feBlend mode="normal" in="SourceGraphic" in2="effect1_dropShadow_34_139" result="shape"/>
</filter>
<clipPath id="clip0_34_139">
<rect width="41" height="31.98" fill="white"/>
</clipPath>
</defs>
</svg>
